<?xml version="1.0" encoding="utf-8"?>
<!-- Generator: Adobe Illustrator 19.0.0, SVG Export Plug-In . SVG Version: 6.00 Build 0)  -->
<!DOCTYPE svg PUBLIC "-//W3C//DTD SVG 1.1//EN" "http://www.w3.org/Graphics/SVG/1.1/DTD/svg11.dtd">
<svg version="1.1" id="Crucible_-_blue" xmlns="http://www.w3.org/2000/svg" xmlns:xlink="http://www.w3.org/1999/xlink" x="0px"
	 y="0px" width="759.1px" height="267.7px" viewBox="0 0 759.1 267.7" enable-background="new 0 0 759.1 267.7"
	 xml:space="preserve">
<g>
	<path fill="#205081" d="M219.1,127.4c7.5,0,17.8,1,27.6,2.7c0.8,0.2,1.7-0.1,2.4-0.6c0.7-0.5,1.1-1.3,1.3-2.1l2.1-16.4
		c0.2-1.6-0.8-3.1-2.4-3.5c-9.9-2.4-21.1-3.7-31.7-3.7c-29.5,0-44.5,12.3-44.5,36.5V195c0,24.2,15,36.5,44.5,36.5
		c10.6,0,21.8-1.3,31.7-3.7c1.6-0.4,2.6-1.9,2.4-3.5l-2.1-16.4c-0.1-0.9-0.6-1.6-1.3-2.1c-0.7-0.5-1.6-0.7-2.4-0.6
		c-9.8,1.7-20.1,2.7-27.6,2.7c-14.6,0-19.6-4.3-19.6-17v-46.6C199.5,131.7,204.5,127.4,219.1,127.4z"/>
	<path fill="#205081" d="M310.8,139.9c-0.1-1-0.6-1.8-1.4-2.3c-0.8-0.5-1.8-0.6-2.7-0.3c-6.8,2.4-14.9,7-19.7,10L286,141
		c-0.2-1.5-1.6-2.7-3.1-2.7h-15.4c-1.7,0-3.1,1.4-3.1,3.2v85c0,1.7,1.4,3.2,3.1,3.2h18.6c1.7,0,3.2-1.4,3.2-3.2v-54.6
		c7.1-4.5,13.5-8.2,21.5-11.9c1.2-0.6,2-1.9,1.8-3.2L310.8,139.9z"/>
	<path fill="#205081" d="M396,138.3h-18.6c-1.7,0-3.1,1.4-3.1,3.2v58.9c-6.7,3.4-16.1,6.9-21.8,6.9c-4.2,0-5.7-1.6-5.7-5.7v-60.1
		c0-1.7-1.4-3.2-3.2-3.2H325c-1.7,0-3.1,1.4-3.1,3.2v62.5c0,18.3,7.2,27.6,21.4,27.6c9.9,0,23.3-3.4,34.6-8.7l1.4,4.6
		c0.4,1.3,1.6,2.3,3,2.3H396c1.7,0,3.2-1.4,3.2-3.2v-85C399.2,139.7,397.8,138.3,396,138.3z"/>
	<path fill="#205081" d="M472.4,210.4c-0.1-0.9-0.6-1.6-1.3-2.1c-0.7-0.5-1.6-0.7-2.5-0.5c-5.3,1.2-10.9,1.9-16.2,1.9
		c-11.8,0-15.2-3-15.2-13.4v-24.6c0-10.4,3.4-13.4,15.2-13.4c2.8,0,9.8,0.4,16.2,1.9c0.9,0.2,1.8,0,2.5-0.5c0.7-0.5,1.2-1.3,1.3-2.1
		l2.2-14.7c0.2-1.6-0.7-3-2.2-3.5c-7.2-2.1-15.5-2.9-20.5-2.9c-28.1,0-39.6,10.3-39.6,35.4v24.2c0,25.1,11.5,35.4,39.6,35.4
		c6.8,0,14.7-1.1,20.6-2.9c1.5-0.5,2.4-1.9,2.2-3.5L472.4,210.4z"/>
	<path fill="#205081" d="M510.4,138.3h-18.6c-1.7,0-3.2,1.4-3.2,3.2v85c0,1.7,1.4,3.2,3.2,3.2h18.6c1.7,0,3.2-1.4,3.2-3.2v-85
		C513.6,139.7,512.1,138.3,510.4,138.3z"/>
	<path fill="#205081" d="M510.4,103.5h-18.6c-1.7,0-3.2,1.4-3.2,3.2v16.3c0,1.7,1.4,3.2,3.2,3.2h18.6c1.7,0,3.2-1.4,3.2-3.2v-16.3
		C513.6,104.9,512.1,103.5,510.4,103.5z"/>
	<path fill="#205081" d="M580.4,136.5c-9.2,0-18.5,2.3-24.9,4.6v-34.5c0-1.7-1.4-3.2-3.2-3.2h-18.6c-1.7,0-3.1,1.4-3.1,3.2v118.9
		c0,1.5,1.1,2.8,2.6,3.1c11.5,2.1,25,2.8,33.2,2.8c35,0,42.1-14.9,42.1-37.2v-26C608.5,147.2,599.1,136.5,580.4,136.5z M567.5,209.9
		c-4.7,0-8.6-0.2-11.9-0.6v-46.5c4.9-2.2,12.3-4.6,18.1-4.6c7.1,0,9.9,2.8,9.9,9.6V195C583.6,204.9,581.1,209.9,567.5,209.9z"/>
	<path fill="#205081" d="M643.4,103.5h-18.6c-1.7,0-3.1,1.4-3.1,3.2v119.9c0,1.7,1.4,3.2,3.1,3.2h18.6c1.7,0,3.2-1.4,3.2-3.2V106.6
		C646.6,104.9,645.2,103.5,643.4,103.5z"/>
	<path fill="#205081" d="M698.7,136.5c-24.9,0-38.1,12.4-38.1,35.9v23.5c0,24.3,12.3,35.6,38.8,35.6c10.8,0,22.3-1.9,31.6-5.2
		c1.5-0.5,2.3-2.1,2-3.6l-2.8-13.3c-0.2-0.9-0.7-1.6-1.5-2.1c-0.7-0.5-1.7-0.6-2.5-0.3c-8.5,2.4-16.7,3.6-24.9,3.6
		c-13.6,0-15.9-4.4-15.9-13.6v-3.2h46.2c1.7,0,3.2-1.4,3.2-3.2v-17.1C734.8,148.3,723.3,136.5,698.7,136.5z M685.5,173.3v-3
		c0-8.8,4.3-12.8,13.4-12.8c10.1,0,12.1,4.9,12.1,12.8v3H685.5z"/>
	<path fill="#205081" d="M119.4,199c3.2-6.9,6.2-13.9,9-21.1c4.8-12.3,10.2-25.7,11.4-39.7c0.3-3.3,0.5-6.3,0.3-9.1
		c-0.1-4.1-1.2-7.6-3.5-10.2c-0.4-0.4-0.8-0.8-1.2-1.2c-1.5-1.7-3.1-3-4.9-4.2c-2.2-1.6-4.5-2.9-6.9-3.9
		c-13.8-5.9-28.8-8.3-43.6-8.1c-14.8-0.2-29.8,2.2-43.6,8.1c-2.3,1-4.6,2.3-6.9,3.9c-1.7,1.2-3.4,2.6-4.9,4.2
		c-0.4,0.4-0.8,0.8-1.2,1.2c-2.4,2.6-3.4,6.1-3.5,10.2c-0.2,2.8,0,5.7,0.3,9.1c1.2,14,6.7,27.4,11.4,39.7c2.8,7.2,5.8,14.2,9,21.1
		c-15,4.8-24.5,12.2-24.5,20.4c0,8.6,11,16.3,27.8,20.8c0,0,0,0,0,0c0.2,0.1,0.4,0.1,0.6,0.1c1.5,0,2.7-1.4,2.7-3.1
		c0-1.4-0.8-2.6-1.9-2.9l0,0c-12.4-4.2-19-10.1-19-13.9c0,0,0,0,0,0c0-3.9,7.6-7.5,19.9-9.8c0.5,1,1,2,1.5,2.9
		c6.3,12.3,22,15.9,32.4,15.9c10.4,0,26.2-3.6,32.4-15.9c0.5-1,1-2,1.5-2.9c12.3,2.3,19.8,5.9,19.9,9.8v0c0,3.8-6.6,9.7-19,13.9l0,0
		c-1.1,0.4-1.9,1.5-1.9,2.9c0,1.7,1.2,3.1,2.7,3.1c0.2,0,0.4,0,0.6-0.1c0,0,0,0,0,0c16.8-4.6,27.8-12.2,27.8-20.8
		C143.9,211.2,134.5,203.8,119.4,199z M32,130.8c0-0.4,0.3-1.8,2.4-3.8c6-6,24.3-12.6,45.4-12.4c0.1,0,0.2,0,0.2,0
		c0.1,0,0.2,0,0.2,0c21.1-0.2,39.4,6.4,45.4,12.4c2,2,2.4,3.3,2.4,3.8c0,0.6-0.3,1.5-2,3.1c-1.6,1.4-4.2,2.9-6.9,4.1
		c-1,0.4-5.6,2.3-11.2,6c-6.4,4.4-10.5,11-14.6,16.8c-1.4,2-2.7,3.9-4,5.5h0c-2.1,2.8-5.5,4.5-9.2,4.5c-3.8,0-7.1-1.8-9.2-4.5h0
		c-1.3-1.7-2.7-3.5-4-5.5c-4.1-5.8-8.2-12.4-14.6-16.8c-5.6-3.8-10.2-5.6-11.2-6c-2.7-1.2-5.3-2.7-6.9-4.1
		C32.3,132.4,32,131.4,32,130.8z"/>
</g>
</svg>
