<?xml version="1.0" encoding="utf-8"?>
<!-- Generator: Adobe Illustrator 19.0.0, SVG Export Plug-In . SVG Version: 6.00 Build 0)  -->
<!DOCTYPE svg PUBLIC "-//W3C//DTD SVG 1.1//EN" "http://www.w3.org/Graphics/SVG/1.1/DTD/svg11.dtd">
<svg version="1.1" id="Bamboo_-_Blue" xmlns="http://www.w3.org/2000/svg" xmlns:xlink="http://www.w3.org/1999/xlink" x="0px"
	 y="0px" width="801px" height="267.7px" viewBox="0 0 801 267.7" enable-background="new 0 0 801 267.7" xml:space="preserve">
<g>
	<g>
		<path fill="#205081" d="M255.2,164.8c7.7-4.2,11-10.2,11-19.3v-12.6c0-18.3-11-27.2-33.6-27.2h-45.9c-1.7,0-3.1,1.4-3.1,3.2v117.6
			c0,1.7,1.4,3.2,3.1,3.2H236c21.9,0,34.5-10.6,34.5-29.2v-12.9C270.5,176.5,264.8,168.2,255.2,164.8z M209.3,127.4H230
			c9.4,0,10.7,4.1,10.7,8.5v10.7c0,7-3.2,9.9-10.8,9.9h-4.5c-1.7,0-3.2,1.4-3.2,3.1v14.8c0,1.7,1.4,3.2,3.2,3.2h8.1
			c8.1,0,11.4,3.1,11.4,10.8v9.1c0,7.8-3.4,10.5-13.4,10.5h-22.1V127.4z"/>
	</g>
</g>
<g>
	<path fill="#205081" d="M15.5,162.9c2.6,1.6,8.2,3.3,15.9,3.3h0c3.7,0,7.4-0.4,10.4-1.2c0.3-0.1,0.6-0.4,0.6-0.7
		c0.5-5.8,2.1-11.6,4.8-16.8c0.1-0.2,0.1-0.4,0-0.7c-0.1-0.2-0.2-0.4-0.4-0.5c-3-1.4-6.2-3.3-9.1-5.4c-4.5-3.2-8.2-6.9-10.9-10.6
		c-0.2-0.3-0.5-0.4-0.9-0.3c-0.3,0.1-0.6,0.3-0.6,0.7c-1,5.1-2.4,10.3-4.1,15.7c-1.8,5.5-3.8,10.6-6,15.4
		C15,162.2,15.1,162.7,15.5,162.9z"/>
	<path fill="#205081" d="M48.8,192.1c0.2-0.3,0.3-0.7,0.1-1c-2.4-4-4.2-8.3-5.3-12.9c-0.3-1.1-0.5-2.3-0.7-3.5
		c0-0.2-0.2-0.4-0.3-0.6c-0.2-0.1-0.4-0.2-0.6-0.1c-3.3,0.6-6.9,1-10.5,1c-5.5,0-10.7-0.7-15.1-2.2c-0.3-0.1-0.7,0-0.9,0.2
		c-0.2,0.2-0.3,0.6-0.1,0.9c2.2,4.7,4.2,9.8,5.9,15.1c1.8,5.5,3.2,10.8,4.2,16c0.1,0.4,0.4,0.7,0.8,0.7c0,0,0,0,0.1,0
		c3.1-0.3,8.6-2.1,14.8-6.7C44.1,197,46.8,194.6,48.8,192.1z"/>
	<path fill="#205081" d="M94.2,101.4c-0.3-0.6-0.8-1-1.4-1.1L53,92c-0.8-0.2-1.6,0.2-2.1,0.9c-0.4,0.7-0.4,1.6,0.1,2.2l6,8.1
		c-3.3,2.9-6.9,5.8-10.7,8.6c-4.6,3.4-9.3,6.4-13.9,8.9c-0.4,0.2-0.5,0.7-0.4,1.1c1.2,2.8,4.7,7.5,10.9,12c3,2.2,6.2,4,9.1,5.2
		c0.1,0,0.2,0.1,0.3,0.1c0.2,0,0.5-0.1,0.6-0.3c4.1-4.8,9.1-8.6,14.8-11.3l2,10.1c0.2,0.8,0.8,1.4,1.6,1.6c0.1,0,0.2,0,0.3,0
		c0.7,0,1.3-0.4,1.7-1l20.7-35C94.4,102.6,94.5,102,94.2,101.4z"/>
	<path fill="#205081" d="M70.1,209.2c-5.5-2.2-10.5-5.6-14.7-9.8c-0.2-0.2-0.4-0.2-0.6-0.2c-0.2,0-0.4,0.1-0.6,0.3
		c-2.3,2.4-5,4.8-7.9,7c-4.5,3.2-9.1,5.7-13.4,7.1c-0.3,0.1-0.5,0.4-0.6,0.7c0,0.3,0.1,0.6,0.4,0.8c4.5,2.5,9.1,5.5,13.7,8.8
		c4.7,3.4,9.1,7,13,10.7c0.2,0.2,0.4,0.2,0.6,0.2c0.2,0,0.4-0.1,0.5-0.2c2.4-2.1,5.7-6.9,8.1-14.2c1.2-3.6,1.9-7.1,2.1-10.3
		C70.6,209.7,70.4,209.3,70.1,209.2z"/>
	<path fill="#205081" d="M159,172.5c-2.6-1.6-8.2-3.3-15.9-3.3c-3.8,0-7.4,0.4-10.4,1.2c-0.3,0.1-0.6,0.4-0.6,0.7
		c-0.5,5.8-2.1,11.6-4.8,16.8c-0.1,0.2-0.1,0.4,0,0.7c0.1,0.2,0.2,0.4,0.4,0.5c3,1.4,6.2,3.3,9.1,5.4c4.5,3.2,8.2,6.9,10.9,10.6
		c0.2,0.2,0.4,0.3,0.7,0.3c0.1,0,0.1,0,0.2,0c0.3-0.1,0.6-0.3,0.6-0.7c1-5.1,2.4-10.3,4.1-15.7c1.8-5.5,3.8-10.6,6-15.4
		C159.5,173.2,159.4,172.7,159,172.5z"/>
	<path fill="#205081" d="M125.7,143.3c-0.2,0.3-0.3,0.7-0.1,1c2.4,4,4.2,8.3,5.3,12.9c0.3,1.1,0.5,2.3,0.7,3.5
		c0,0.2,0.2,0.4,0.3,0.6c0.2,0.1,0.4,0.2,0.6,0.1c3.3-0.6,6.9-1,10.5-1c5.5,0,10.7,0.7,15.1,2.2c0.1,0,0.2,0,0.3,0c0,0,0,0,0,0
		c0.5,0,0.8-0.4,0.8-0.8c0-0.2-0.1-0.4-0.2-0.5c-2.2-4.6-4.1-9.7-5.8-15c-1.8-5.5-3.2-10.8-4.2-16c-0.1-0.4-0.5-0.7-0.9-0.7
		c-3.1,0.3-8.5,2.1-14.8,6.7C130.4,138.4,127.7,140.8,125.7,143.3z"/>
	<path fill="#205081" d="M104.4,126.4c5.5,2.2,10.5,5.6,14.7,9.8c0.2,0.2,0.4,0.2,0.6,0.2c0,0,0,0,0,0c0.2,0,0.4-0.1,0.6-0.3
		c2.3-2.4,5-4.9,7.9-7c4.5-3.2,9.1-5.7,13.4-7.1c0.3-0.1,0.5-0.4,0.6-0.7c0-0.3-0.1-0.6-0.4-0.8c-4.5-2.5-9.1-5.5-13.7-8.8
		c-4.7-3.4-9.1-7-13-10.7c-0.3-0.3-0.8-0.3-1.1,0c-2.4,2.1-5.7,6.9-8.1,14.2c-1.2,3.5-1.9,7.1-2.1,10.3
		C103.9,126,104.1,126.3,104.4,126.4z"/>
	<path fill="#205081" d="M131.6,201.6c-3-2.2-6.2-4-9.1-5.2c-0.3-0.1-0.7,0-0.9,0.2c-4.1,4.8-9.1,8.6-14.8,11.3l-2-10.1
		c-0.2-0.8-0.8-1.4-1.6-1.6c-0.8-0.1-1.6,0.2-2,0.9l-20.7,35c-0.3,0.5-0.4,1.2-0.1,1.8c0.3,0.6,0.8,1,1.4,1.1l39.8,8.3
		c0.1,0,0.3,0,0.4,0c1.1,0,2-0.9,2-2c0-0.5-0.2-1-0.5-1.4l-5.8-8c3.3-2.9,6.9-5.8,10.7-8.6c4.6-3.4,9.3-6.4,13.9-8.9
		c0.4-0.2,0.5-0.7,0.4-1.1C141.3,210.8,137.8,206.1,131.6,201.6z"/>
</g>
<path fill="#205081" d="M315.1,136.5c-9.4,0-20.9,1.5-29.2,3.8c-1.5,0.4-2.5,2-2.3,3.5l2.2,13.5c0.1,0.8,0.6,1.6,1.3,2.1
	c0.7,0.5,1.6,0.7,2.4,0.5c7.7-1.5,15.7-2.3,22.5-2.3c13.4,0,15.6,2.8,15.6,11.9v7.9h-19.9c-19.1,0-27.2,7.9-27.2,26.3
	c0,17.6,8.9,27.7,24.5,27.7c9,0,18-2.5,25.6-7.1l0.8,2.9c0.4,1.4,1.6,2.3,3,2.3h15c1.7,0,3.2-1.4,3.2-3.1v-56.6
	C352.4,145.5,342.3,136.5,315.1,136.5z M327.5,196.2v11c-3.1,1.6-8.7,4-15.4,4c-5.8,0-7.6-1.8-7.6-7.6c0-5.6,1.1-7.4,7.9-7.4H327.5z
	"/>
<path fill="#205081" d="M477.2,136.5c-10,0-24,3.6-35.1,9c-3.4-6-9.2-9-17.3-9c-9.9,0-23.3,3.4-34.6,8.7l-1.4-4.6
	c-0.4-1.3-1.6-2.3-3-2.3H372c-1.7,0-3.1,1.4-3.1,3.2v85c0,1.7,1.4,3.1,3.1,3.1h18.6c1.7,0,3.2-1.4,3.2-3.1v-58.9
	c6.7-3.4,16.1-6.9,21.8-6.9c4.2,0,5.7,1.6,5.7,5.7v60.1c0,1.7,1.4,3.1,3.2,3.1H443c1.7,0,3.2-1.4,3.2-3.1v-58.9
	c6.7-3.7,16.7-6.9,21.8-6.9c4.2,0,5.7,1.6,5.7,5.7v60.1c0,1.7,1.4,3.1,3.2,3.1h18.6c1.7,0,3.2-1.4,3.2-3.1v-62.4
	C498.6,145.8,491.4,136.5,477.2,136.5z"/>
<path fill="#205081" d="M565.7,136.5c-9.2,0-18.5,2.3-24.9,4.6v-34.5c0-1.7-1.4-3.2-3.2-3.2h-18.6c-1.7,0-3.1,1.4-3.1,3.2v118.9
	c0,1.5,1.1,2.8,2.6,3.1c11.5,2.1,25,2.8,33.2,2.8c35,0,42.1-14.9,42.1-37.2v-26C593.8,147.2,584.3,136.5,565.7,136.5z M552.7,209.8
	c-4.7,0-8.6-0.2-11.9-0.6v-46.5c5.1-2.3,12.3-4.6,18.1-4.6c7.1,0,9.9,2.8,9.9,9.6V195C568.9,204.8,566.4,209.8,552.7,209.8z"/>
<path fill="#205081" d="M645.1,136.5c-26.1,0-39.9,12.6-39.9,36.3v22.4c0,23.7,13.8,36.3,39.9,36.3c26.1,0,39.9-12.5,39.9-36.3
	v-22.4C685,149,671.2,136.5,645.1,136.5z M630.1,172.1c0-9.8,4.5-13.9,15-13.9c10.5,0,15,4.2,15,13.9v23.8c0,9.8-4.5,13.9-15,13.9
	c-10.5,0-15-4.2-15-13.9V172.1z"/>
<path fill="#205081" d="M735.5,136.5c-26.1,0-39.9,12.6-39.9,36.3v22.4c0,23.7,13.8,36.3,39.9,36.3c26.1,0,39.9-12.5,39.9-36.3
	v-22.4C775.4,149,761.6,136.5,735.5,136.5z M720.5,172.1c0-9.8,4.5-13.9,15-13.9c10.5,0,15,4.2,15,13.9v23.8c0,9.8-4.5,13.9-15,13.9
	c-10.5,0-15-4.2-15-13.9V172.1z"/>
</svg>
