<?xml version="1.0" encoding="utf-8"?>
<!-- Generator: Adobe Illustrator 19.0.0, SVG Export Plug-In . SVG Version: 6.00 Build 0)  -->
<!DOCTYPE svg PUBLIC "-//W3C//DTD SVG 1.1//EN" "http://www.w3.org/Graphics/SVG/1.1/DTD/svg11.dtd">
<svg version="1.1" id="Conf_-_Blue" xmlns="http://www.w3.org/2000/svg" xmlns:xlink="http://www.w3.org/1999/xlink" x="0px"
	 y="0px" width="1401px" height="267.7px" viewBox="0 0 1401 267.7" enable-background="new 0 0 1401 267.7" xml:space="preserve">
<g>
	<path fill="#205081" d="M521.4,223.4c9.8,3.7,23.4,6.1,35.6,6.1c33.9,0,40.6-12.5,40.6-34.2c0-11.6-0.2-19.1-5-24.7
		c-4.3-5.1-12.1-8.4-29.7-12.8c-11.3-2.8-17.8-4.6-20.8-7.5c-2.6-2.6-2.9-6.8-2.9-15.6c0-13.4,3.2-17.5,23-17.5
		c9.6,0,20.4,1.2,29.8,3.2c0.1,0,0.3,0,0.4,0c0.4,0,0.8-0.1,1.2-0.4c0.5-0.3,0.8-0.9,0.8-1.4l1-10.8c0.1-1-0.5-1.9-1.5-2.1
		c-9.3-2.3-21.6-3.8-32.1-3.8c-33.1,0-39.8,12.9-39.8,32.3c0,11.5,0.4,20.1,5.4,26.2c5,6,14.1,9,28.2,12.2
		c12.4,2.8,18.9,4.7,21.9,7.6c2.7,2.7,3,6.6,3,15.4c0,14.5-5,18.5-23,18.5c-10.6,0-21.9-1.7-32.6-4.9c-0.2-0.1-0.4-0.1-0.6-0.1
		c-0.4,0-0.7,0.1-1,0.3c-0.5,0.3-0.8,0.8-0.9,1.3l-2.1,10.4C520,222.1,520.5,223.1,521.4,223.4z"/>
	<path fill="#205081" d="M866.3,168.1v28.2c0,20,6.2,33.2,36.3,33.2c8,0,16.3-1.3,20.6-2.5c1-0.3,1.6-1.2,1.5-2.2l-1.2-10.3
		c-0.1-0.6-0.4-1.1-0.8-1.4c-0.3-0.3-0.8-0.4-1.2-0.4c-0.1,0-0.3,0-0.4,0c-5.9,1.2-11.9,1.7-18.1,1.7c-15.1,0-19.9-4.3-19.9-17.7
		v-29.3c0-13.4,4.8-17.7,19.9-17.7c6.2,0,12.2,0.6,18.1,1.7c0.1,0,0.3,0,0.4,0c0.4,0,0.8-0.1,1.2-0.4c0.5-0.3,0.7-0.8,0.8-1.4
		l1-10.3c0.1-1-0.5-1.9-1.5-2.1c-4.4-1.2-12.5-2.5-20.4-2.5C883.8,134.9,866.3,138.9,866.3,168.1z"/>
	<path fill="#205081" d="M934.7,169v26.9c0,22.9,11.5,33.6,36.1,33.6c10.6,0,22.1-1.8,30.8-4.8c0.9-0.3,1.5-1.3,1.3-2.2l-1.6-9.8
		c-0.1-0.6-0.4-1-0.9-1.4c-0.3-0.2-0.7-0.3-1.1-0.3c-0.2,0-0.3,0-0.5,0.1c-10,2.6-19,3.8-26.7,3.8c-16,0-20.6-4.3-20.6-19.2v-6.9
		h51.3c1.1,0,2-0.9,2-2v-17.4c0-23.2-11.2-34.5-34.3-34.5c-11.7,0-20.7,2.9-26.7,8.6C937.8,149.3,934.7,157.8,934.7,169z
		 M988.6,174.6h-37.1v-6.7c0-13,5.9-18.8,19-18.8c13,0,18.1,5.3,18.1,18.8V174.6z"/>
	<path fill="#205081" d="M1188.8,229.5c10.6,0,22.1-1.8,30.8-4.8c0.9-0.3,1.5-1.3,1.3-2.2l-1.6-9.8c-0.1-0.6-0.4-1-0.9-1.4
		c-0.3-0.2-0.7-0.3-1.1-0.3c-0.2,0-0.3,0-0.5,0.1c-10,2.6-19,3.8-26.7,3.8c-16,0-20.6-4.3-20.6-19.2v-6.9h51.3c1.1,0,2-0.9,2-2
		v-17.4c0-23.2-11.2-34.5-34.3-34.5c-11.7,0-20.7,2.9-26.7,8.6c-6,5.8-9.1,14.3-9.1,25.5v26.9
		C1152.7,218.8,1164.1,229.5,1188.8,229.5z M1206.5,174.6h-37.1v-6.7c0-13,5.9-18.8,19-18.8c13,0,18.1,5.3,18.1,18.8V174.6z"/>
	<path fill="#205081" d="M849.5,100.2h-12.8c-1.1,0-2,0.9-2,2v16.5c0,1.1,0.9,2,2,2h12.8c1.1,0,2-0.9,2-2v-16.5
		C851.5,101.1,850.6,100.2,849.5,100.2z"/>
	<path fill="#205081" d="M834.7,225.7c0,1.1,0.9,2,2,2h12.8c1.1,0,2-0.9,2-2v-87.2c0-1.1-0.9-2-2-2h-12.8c-1.1,0-2,0.9-2,2V225.7z"
		/>
	<path fill="#205081" d="M1308.3,227.7h12.8c1.1,0,2-0.9,2-2V102.2c0-1.1-0.9-2-2-2h-12.8c-1.1,0-2,0.9-2,2v123.5
		C1306.3,226.8,1307.2,227.7,1308.3,227.7z"/>
	<path fill="#205081" d="M1358.1,226.8c0.4,0.5,1,0.8,1.6,0.8h14.9c0.8,0,1.4-0.4,1.8-1.1c0.3-0.7,0.3-1.5-0.2-2.1l-31.6-42.8
		l30.2-41.8c0.4-0.6,0.5-1.4,0.2-2.1c-0.3-0.7-1-1.1-1.8-1.1h-14.6c-0.6,0-1.3,0.3-1.6,0.8l-30.7,43c-0.5,0.7-0.5,1.6,0,2.3
		L1358.1,226.8z"/>
	<path fill="#205081" d="M737.4,148.7l-1.6-11.5c-0.1-0.6-0.5-1.2-1-1.5c-0.3-0.2-0.6-0.3-1-0.3c-0.3,0-0.5,0.1-0.8,0.2
		c-7.7,3.4-15.7,8.1-22.2,13l-0.7-10c-0.1-1-0.9-1.9-2-1.9h-10.9c-1.1,0-2,0.9-2,2v87c0,1.1,0.9,2,2,2H710c1.1,0,2-0.9,2-2v-60.1
		c5.2-3.7,15.1-10.3,24.3-14.8C737.1,150.4,737.5,149.5,737.4,148.7z"/>
	<path fill="#205081" d="M1235.4,225.1c7.3,2.6,18.9,4.4,27.7,4.4c8.7,0,17.6-0.6,23.5-4.8c5.5-4,8.1-10.9,8.1-21.8
		c0-8.5-0.3-14.3-4.5-18.6c-3.9-4-11.1-6.3-23.8-9.5c-14.7-3.6-14.7-5.1-14.7-14.8c0-4.4,0.6-6.6,2.2-8c2-1.7,5.8-2.5,12.1-2.5
		c6.6,0,15.5,0.9,23.2,2.3c0.1,0,0.2,0,0.4,0c0.4,0,0.9-0.1,1.2-0.4c0.4-0.3,0.7-0.9,0.8-1.4l0.9-10.1c0.1-1-0.5-1.9-1.5-2.1
		c-7.1-1.8-16-2.9-24.4-2.9c-26.2,0-31.6,9.9-31.6,24.8c0,18.8,2.3,23.8,24.8,29.4c18.2,4.5,18.2,5.6,18.2,14.4
		c0,5.1-0.8,7.7-2.7,9.2c-2.1,1.6-6,2.3-13.1,2.3c-7.2,0-16.4-1.3-24-3.3c-0.2,0-0.3-0.1-0.5-0.1c-0.4,0-0.8,0.1-1.1,0.3
		c-0.5,0.3-0.8,0.8-0.9,1.4l-1.6,9.6C1234,223.8,1234.5,224.7,1235.4,225.1z"/>
	<path fill="#205081" d="M774.2,227.7h18.7c0.9,0,1.6-0.6,1.9-1.4l28.7-87c0.2-0.6,0.1-1.3-0.3-1.8c-0.4-0.5-1-0.8-1.6-0.8h-12.5
		c-0.9,0-1.6,0.6-1.9,1.4l-23.7,74l-23.7-74c-0.3-0.8-1-1.4-1.9-1.4h-12.5c-0.6,0-1.2,0.3-1.6,0.8c-0.4,0.5-0.5,1.2-0.3,1.8l28.7,87
		C772.5,227.1,773.3,227.7,774.2,227.7z"/>
	<path fill="#205081" d="M1057.9,227.7h13.2c1.1,0,2-0.9,2-2V119.3h25.8c16.6,0,23.4,6.2,23.4,21.4v50c0,14.5-8,21.3-25.1,21.4
		l-2.9,0l-7.6,0c-1.1,0-2,0.9-2,2v11.5c0,1.1,0.9,2,2,2h13.3c12.9-0.1,22.8-3.1,29.5-9.1c6.7-6,10.1-15,10.1-26.7v-52.3
		c0-11.8-3.4-20.8-10.2-26.8c-6.7-6-16.7-9-29.8-9h-41.5c-1.1,0-2,0.9-2,2v119.9C1055.9,226.8,1056.8,227.7,1057.9,227.7z"/>
	<path fill="#205081" d="M679.1,188.8c1.1,0,2-0.9,2-2v-17.4c0-23.2-11.2-34.5-34.3-34.5c-11.7,0-20.7,2.9-26.7,8.6
		c-6,5.8-9.1,14.3-9.1,25.5v26.9c0,22.9,11.5,33.6,36.1,33.6c10.6,0,22.1-1.8,30.8-4.8c0.9-0.3,1.5-1.3,1.3-2.2l-1.6-9.8
		c-0.1-0.6-0.4-1-0.9-1.3c-0.3-0.2-0.7-0.3-1.1-0.3c-0.2,0-0.3,0-0.5,0.1c-10,2.6-19,3.8-26.7,3.8c-16,0-20.6-4.3-20.6-19.2v-6.9
		H679.1z M646.8,149.1c13,0,18.1,5.3,18.1,18.8v6.7h-37.1v-6.7C627.8,154.9,633.7,149.1,646.8,149.1z"/>
</g>
<g>
	<path fill="#205081" d="M256.3,103.7H237c-1.7,0-3.2,1.4-3.2,3.1v117.6c0,1.7,1.4,3.2,3.2,3.2h19.3c1.7,0,3.2-1.4,3.2-3.2V106.9
		C259.5,105.2,258.1,103.7,256.3,103.7z"/>
	<path fill="#205081" d="M211.1,103.7h-19.6c-1.7,0-3,1.3-3,3v92c0,11.6-8.8,15.4-14.8,15.7c-0.8,0-1.7,0.5-2.3,1.3
		c-0.5,0.8-0.7,1.7-0.4,2.6l4.8,15.5c0.4,1.3,1.8,2.1,4,2.1c18.7,0,34.3-14.7,34.3-34.4v-94.7c0-0.8-0.3-1.6-0.9-2.1
		C212.6,104.1,211.8,103.7,211.1,103.7z"/>
	<g>
		<g>
			<g>
				<g>
					<path fill="#205081" d="M59.5,71.7c-6,0-10.9,4.9-10.9,10.9c0,6,4.9,10.9,10.9,10.9c6,0,10.9-4.9,10.9-10.9
						C70.4,76.5,65.5,71.7,59.5,71.7L59.5,71.7L59.5,71.7z"/>
				</g>
			</g>
			<g>
				<g>
					<path fill="#205081" d="M131,71.7c-6,0-10.9,4.9-10.9,10.9c0,6,4.9,10.9,10.9,10.9c6,0,10.9-4.9,10.9-10.9
						C141.9,76.5,137,71.7,131,71.7L131,71.7L131,71.7z"/>
				</g>
			</g>
		</g>
		<g>
			<g>
				<path fill="#205081" d="M95.3,61.7c-6,0-10.9,4.9-10.9,10.9c0,6,4.9,10.9,10.9,10.9c6,0,10.9-4.9,10.9-10.9
					C106.1,66.6,101.3,61.7,95.3,61.7L95.3,61.7L95.3,61.7z"/>
			</g>
		</g>
	</g>
	<g>
		<path fill="#205081" d="M156.7,102c-0.6-0.5-1.3-0.7-2.1-0.7c-0.4,0-0.8,0.1-1.2,0.2c-7.4,2.8-14.8,5-21.7,6.5
			c-1.4,0.3-2.5,1.4-3,2.6c-5,13.6-17.7,26.6-31,40.2c-0.5,0.5-1.3,1.2-2.5,1.2c-1.2,0-2-0.6-2.5-1.2c-13.3-13.6-26-26.5-31-40.1
			c-0.5-1.2-1.6-2.3-3-2.6c-6.8-1.6-14.3-3.8-21.7-6.6c-0.4-0.2-0.8-0.2-1.2-0.2c-0.7,0-1.5,0.2-2.1,0.7c-0.9,0.7-1.4,1.9-1.3,3
			c1.1,11.3,5.6,22.4,13.7,34c7.6,10.9,17.5,21,27.1,30.8c17.7,18,34.3,35,35.8,54.7c0.1,1.8,1.6,3.2,3.4,3.2h20.7
			c0.9,0,1.8-0.4,2.5-1.1c0.6-0.7,1-1.6,0.9-2.5c-0.7-13.2-5.6-26.4-15.2-40.4c-2-2.9-4.1-5.8-6.4-8.6c-0.9-1.1-0.5-2.5,0.2-3.3
			c0.7-0.7,1.4-1.4,2.1-2.1c9.6-9.8,19.5-19.9,27.1-30.8c8.1-11.6,12.6-22.6,13.7-34C158.2,103.9,157.6,102.7,156.7,102z"/>
		<g>
			<path fill="#205081" d="M73,185.1c-0.5-0.5-1.2-1-2.4-1c-1.5,0-2.5,1.1-2.8,1.6c-8.7,13.3-13.2,25.8-13.8,38.4
				c0,0.9,0.3,1.8,0.9,2.5c0.6,0.7,1.5,1.1,2.5,1.1H78c1.8,0,3.3-1.4,3.4-3.2c0.5-6.1,2.3-12.1,5.8-18.5c1.2-2.2,0.3-4.3-0.4-5.2
				C83.4,196.3,79.2,191.6,73,185.1z"/>
		</g>
		<path fill="#205081" d="M95.3,112.2c6.5,0,10.3-0.4,11.6-0.4c1.6,0,3.1,1.3,3.1,3.2c0,0.5-0.1,0.9-0.3,1.3
			c-0.9,2.3-4.8,10.6-12.1,17.7c-0.8,0.8-1.8,0.9-2.4,0.9h0c-0.6,0-1.6-0.1-2.4-0.9c-7.3-7.1-11.2-15.4-12.1-17.7
			c-0.1-0.3-0.3-0.7-0.3-1.3c0-1.8,1.5-3.2,3.1-3.2C85,111.8,88.7,112.2,95.3,112.2L95.3,112.2z"/>
	</g>
</g>
<path fill="#205081" d="M443.7,105.9c-0.4-1.3-1.6-2.2-3-2.2h-29.4c-1.4,0-2.6,0.9-3,2.2l-34,107.9l-20.9-30.2
	c11.6-4.8,17.5-14.9,17.5-30v-15.8c0-23.6-12.3-34.1-39.9-34.1H283c-1.7,0-3.2,1.4-3.2,3.1v117.6c0,1.7,1.4,3.2,3.2,3.2h19.3
	c1.7,0,3.2-1.4,3.2-3.2v-36.9h19.8l26.9,38.7c0.6,0.8,1.6,1.4,2.6,1.4h39.7c1.4,0,2.6-0.9,3-2.3l25.5-86.5c0,0,0.7-2.2,3-2.2
	c2.4,0,2.9,2.2,2.9,2.2l11.8,41h-16.3c-1.4,0-2.7,0.9-3,2.3l-4.6,16.2c-0.3,1-0.1,2,0.5,2.8c0.6,0.8,1.5,1.2,2.5,1.2h27.5l7.1,22.9
	c0.4,1.3,1.6,2.2,3,2.2h20.2c1,0,1.9-0.5,2.5-1.3c0.6-0.8,0.8-1.9,0.5-2.8L443.7,105.9z M345.2,151.7c0,10-3.8,13.4-15.2,13.4h-24.5
	v-38.4h24.5c12.7,0,15.2,5,15.2,13V151.7z"/>
</svg>
