<?xml version="1.0" encoding="utf-8"?>
<!-- Generator: Adobe Illustrator 19.0.0, SVG Export Plug-In . SVG Version: 6.00 Build 0)  -->
<!DOCTYPE svg PUBLIC "-//W3C//DTD SVG 1.1//EN" "http://www.w3.org/Graphics/SVG/1.1/DTD/svg11.dtd">
<svg version="1.1" xmlns="http://www.w3.org/2000/svg" xmlns:xlink="http://www.w3.org/1999/xlink" x="0px" y="0px" width="1136px"
	 height="267.7px" viewBox="-240 147.3 1136 267.7" enable-background="new -240 147.3 1136 267.7" xml:space="preserve">
<g id="JIRA_-_Blue" display="none" opacity="0.27">
	<g display="inline">
		<path fill="#205081" d="M-6,253h-19.3c-1.7,0-3.2,1.4-3.2,3.1v117.6c0,1.7,1.4,3.2,3.2,3.2H-6c1.7,0,3.2-1.4,3.2-3.2V256.2
			C-2.9,254.4-4.3,253-6,253z"/>
		<path fill="#205081" d="M117.9,371.7L91,332.9c11.6-4.8,17.5-14.9,17.5-30v-15.8c0-23.6-12.3-34.1-39.9-34.1H20.7
			c-1.7,0-3.2,1.4-3.2,3.1v117.6c0,1.7,1.4,3.2,3.2,3.2H40c1.7,0,3.2-1.4,3.2-3.2v-36.9H63l26.9,38.7c0.6,0.8,1.6,1.4,2.6,1.4h23.1
			l0,0c1.7,0,3.2-1.4,3.2-3.2C118.6,373,118.3,372.3,117.9,371.7z M43.1,275.9h24.5c12.7,0,15.2,5,15.2,13v12
			c0,10-3.8,13.4-15.2,13.4H43.1V275.9z"/>
	</g>
	<path display="inline" fill="#205081" d="M181.3,255.2c-0.4-1.3-1.6-2.2-3-2.2h-29.4c-1.4,0-2.6,0.9-3,2.2l-37.1,117.6
		c-0.3,1-0.1,2,0.5,2.8c0.6,0.8,1.5,1.3,2.5,1.3H132c1.4,0,2.6-0.9,3-2.3l25.5-86.5c0,0,0.7-2.2,3-2.2c2.4,0,2.9,2.2,2.9,2.2
		l11.8,41h-16.3c-1.4,0-2.7,0.9-3,2.3l-4.6,16.2c-0.3,1-0.1,2,0.5,2.8s1.5,1.2,2.5,1.2H185l7.1,22.9c0.4,1.3,1.6,2.2,3,2.2h20.2
		c1,0,1.9-0.5,2.5-1.3c0.6-0.8,0.8-1.9,0.5-2.8L181.3,255.2z"/>
	<path display="inline" fill="#205081" d="M-51.3,253h-19.6c-1.7,0-3,1.3-3,3v92c0,11.6-8.8,15.4-14.8,15.7c-0.8,0-1.7,0.5-2.3,1.3
		c-0.5,0.8-0.7,1.7-0.4,2.6l4.8,15.5c0.4,1.3,1.8,2.1,4,2.1c18.7,0,34.3-14.7,34.3-34.4v-94.7c0-0.8-0.3-1.6-0.9-2.1
		C-49.8,253.3-50.5,253-51.3,253z"/>
	<g display="inline">
		<g>
			<g>
				<g>
					<path fill="#205081" d="M-202.8,220.9c-6,0-10.9,4.9-10.9,10.9s4.9,10.9,10.9,10.9s10.9-4.9,10.9-10.9
						C-192,225.8-196.8,220.9-202.8,220.9L-202.8,220.9L-202.8,220.9z"/>
				</g>
			</g>
			<g>
				<g>
					<path fill="#205081" d="M-131.4,220.9c-6,0-10.9,4.9-10.9,10.9s4.9,10.9,10.9,10.9c6,0,10.9-4.9,10.9-10.9
						S-125.4,220.9-131.4,220.9L-131.4,220.9L-131.4,220.9z"/>
				</g>
			</g>
		</g>
		<g>
			<g>
				<path fill="#205081" d="M-167.1,211c-6,0-10.9,4.9-10.9,10.9s4.9,10.9,10.9,10.9s10.9-4.9,10.9-10.9S-161.1,211-167.1,211
					L-167.1,211L-167.1,211z"/>
			</g>
		</g>
	</g>
	<g display="inline">
		<path fill="#205081" d="M-105.6,251.3c-0.6-0.5-1.3-0.7-2.1-0.7c-0.4,0-0.8,0.1-1.2,0.2c-7.4,2.8-14.8,5-21.7,6.5
			c-1.4,0.3-2.5,1.4-3,2.6c-5,13.6-17.7,26.6-31,40.2c-0.5,0.5-1.3,1.2-2.5,1.2s-2-0.6-2.5-1.2c-13.3-13.6-26-26.5-31-40.2
			c-0.5-1.2-1.6-2.3-3-2.6c-6.8-1.6-14.3-3.8-21.7-6.6c-0.4-0.2-0.8-0.2-1.2-0.2c-0.7,0-1.5,0.2-2.1,0.7c-0.9,0.7-1.4,1.9-1.3,3
			c1.1,11.3,5.6,22.4,13.7,34c7.6,10.9,17.5,21,27.1,30.8c17.6,18,34.3,35,35.8,54.7c0.1,1.8,1.6,3.2,3.4,3.2h20.7
			c0.9,0,1.8-0.4,2.5-1.1c0.6-0.7,1-1.6,0.9-2.5c-0.7-13.2-5.6-26.4-15.2-40.4c-2-2.9-4.1-5.8-6.4-8.6c-0.9-1.1-0.5-2.5,0.2-3.3
			c0.7-0.7,1.4-1.4,2.1-2.1c9.6-9.8,19.5-19.9,27.1-30.8c8.1-11.6,12.6-22.6,13.7-34C-104.2,253.2-104.7,252-105.6,251.3z"/>
		<g>
			<path fill="#205081" d="M-189.4,334.4c-0.5-0.5-1.2-1-2.4-1c-1.5,0-2.5,1.1-2.8,1.6c-8.7,13.3-13.2,25.8-13.8,38.4
				c0,0.9,0.3,1.8,0.9,2.5s1.5,1.1,2.5,1.1h20.7c1.8,0,3.3-1.4,3.4-3.2c0.5-6.1,2.3-12.1,5.8-18.5c1.2-2.2,0.3-4.3-0.4-5.2
				C-179,345.6-183.1,340.9-189.4,334.4z"/>
		</g>
		<path fill="#205081" d="M-167.1,261.4c6.5,0,10.3-0.4,11.6-0.4c1.6,0,3.1,1.3,3.1,3.2c0,0.5-0.1,0.9-0.3,1.3
			c-0.9,2.3-4.8,10.6-12.1,17.7c-0.8,0.8-1.8,0.9-2.4,0.9l0,0c-0.6,0-1.6-0.1-2.4-0.9c-7.3-7.1-11.2-15.4-12.1-17.7
			c-0.1-0.3-0.3-0.7-0.3-1.3c0-1.8,1.5-3.2,3.1-3.2C-177.4,261-173.6,261.4-167.1,261.4L-167.1,261.4z"/>
	</g>
</g>
<g id="Layer_2">
	<g>
		<g>
			<path fill="#205081" d="M-5.9,254h-19.2c-1.7,0-3.1,1.4-3.1,3.1v116.7c0,1.7,1.4,3.1,3.1,3.1h19.2c1.7,0,3.1-1.4,3.1-3.1V257.1
				C-2.8,255.4-4.2,254-5.9,254z"/>
			<path fill="#205081" d="M117,371.8l-26.7-38.5c11.5-4.8,17.3-14.8,17.3-29.7v-15.7c0-23.4-12.2-33.8-39.6-33.8H20.5
				c-1.7,0-3.1,1.4-3.1,3.1v116.7c0,1.7,1.4,3.1,3.1,3.1h19.2c1.7,0,3.1-1.4,3.1-3.1v-36.6h19.6l26.7,38.4c0.6,0.8,1.5,1.3,2.6,1.3
				h22.9c0,0,0,0,0,0c1.7,0,3.1-1.4,3.1-3.1C117.8,373,117.5,372.3,117,371.8z M42.8,276.7h24.3c12.6,0,15.1,4.9,15.1,12.9v11.9
				c0,9.9-3.8,13.3-15.1,13.3H42.8V276.7z"/>
		</g>
		<path fill="#205081" d="M179.9,256.2c-0.4-1.3-1.6-2.2-3-2.2h-29.2c-1.4,0-2.6,0.9-3,2.2L108,372.9c-0.3,0.9-0.1,2,0.5,2.8
			c0.6,0.8,1.5,1.3,2.5,1.3h20.1c1.4,0,2.6-0.9,3-2.2l25.3-85.8c0,0,0.7-2.1,3-2.1c2.3,0,2.9,2.2,2.9,2.2l11.8,40.7h-16.1
			c-1.4,0-2.6,0.9-3,2.3l-4.5,16.1c-0.3,0.9-0.1,2,0.5,2.7c0.6,0.8,1.5,1.2,2.5,1.2h27.2l7.1,22.7c0.4,1.3,1.6,2.2,3,2.2h20.1
			c1,0,1.9-0.5,2.5-1.3c0.6-0.8,0.8-1.8,0.5-2.8L179.9,256.2z"/>
		<path fill="#205081" d="M-50.8,254h-19.4c-1.6,0-3,1.3-3,3v91.3c0,11.5-8.7,15.2-14.7,15.5c-0.8,0-1.7,0.5-2.2,1.3
			c-0.5,0.7-0.7,1.7-0.4,2.6l4.7,15.3c0.4,1.3,1.7,2.1,3.9,2.1c18.6,0,34-14.6,34-34.1v-94c0-0.8-0.3-1.5-0.9-2.1
			C-49.2,254.3-50,254-50.8,254z"/>
		<g>
			<g>
				<g>
					<g>
						<path fill="#205081" d="M-201.1,222.2c-6,0-10.8,4.8-10.8,10.8c0,6,4.8,10.8,10.8,10.8c6,0,10.8-4.8,10.8-10.8
							C-190.3,227-195.1,222.2-201.1,222.2L-201.1,222.2L-201.1,222.2z"/>
					</g>
				</g>
				<g>
					<g>
						<path fill="#205081" d="M-130.2,222.2c-6,0-10.8,4.8-10.8,10.8c0,6,4.8,10.8,10.8,10.8c5.9,0,10.8-4.8,10.8-10.8
							C-119.4,227-124.2,222.2-130.2,222.2L-130.2,222.2L-130.2,222.2z"/>
					</g>
				</g>
			</g>
			<g>
				<g>
					<path fill="#205081" d="M-165.6,212.3c-6,0-10.8,4.8-10.8,10.8c0,6,4.8,10.8,10.8,10.8c6,0,10.8-4.8,10.8-10.8
						C-154.8,217.2-159.7,212.3-165.6,212.3L-165.6,212.3L-165.6,212.3z"/>
				</g>
			</g>
		</g>
		<g>
			<path fill="#205081" d="M-104.7,252.3c-0.6-0.5-1.3-0.7-2.1-0.7c-0.4,0-0.8,0.1-1.2,0.2c-7.3,2.8-14.7,4.9-21.5,6.5
				c-1.4,0.3-2.5,1.3-3,2.6c-4.9,13.5-17.5,26.4-30.8,39.9c-0.5,0.5-1.3,1.2-2.5,1.2c-1.2,0-1.9-0.6-2.5-1.2
				c-13.2-13.5-25.8-26.3-30.8-39.8c-0.5-1.2-1.6-2.3-3-2.6c-6.8-1.6-14.2-3.8-21.5-6.6c-0.4-0.1-0.8-0.2-1.2-0.2
				c-0.7,0-1.4,0.2-2,0.7c-0.9,0.7-1.4,1.9-1.3,3c1.1,11.2,5.6,22.2,13.6,33.7c7.5,10.8,17.4,20.8,26.9,30.5
				c17.5,17.9,34,34.7,35.5,54.3c0.1,1.8,1.6,3.1,3.4,3.1h20.6c0.9,0,1.8-0.4,2.5-1.1c0.6-0.7,1-1.6,0.9-2.5
				c-0.6-13.1-5.6-26.2-15-40c-2-2.9-4.1-5.7-6.3-8.5c-0.9-1.1-0.5-2.5,0.2-3.2c0.7-0.7,1.4-1.4,2.1-2.1
				c9.5-9.7,19.3-19.7,26.9-30.5c8-11.5,12.5-22.4,13.6-33.7C-103.3,254.2-103.8,253-104.7,252.3z"/>
			<g>
				<path fill="#205081" d="M-187.7,334.7c-0.5-0.5-1.2-1-2.4-1c-1.5,0-2.4,1.1-2.8,1.6c-8.7,13.2-13.1,25.6-13.7,38.1
					c0,0.9,0.3,1.8,0.9,2.5c0.6,0.7,1.5,1.1,2.5,1.1h20.5c1.8,0,3.3-1.4,3.4-3.1c0.4-6,2.3-12,5.7-18.4c1.2-2.2,0.3-4.3-0.4-5.1
					C-177.4,345.9-181.5,341.2-187.7,334.7z"/>
			</g>
			<path fill="#205081" d="M-165.6,262.4c6.4,0,10.2-0.4,11.5-0.4c1.6,0,3.1,1.3,3.1,3.1c0,0.5-0.1,0.9-0.3,1.2
				c-0.9,2.3-4.8,10.5-12,17.6c-0.8,0.8-1.7,0.9-2.4,0.9h0c-0.6,0-1.6-0.1-2.4-0.9c-7.3-7.1-11.2-15.3-12-17.6
				c-0.1-0.3-0.3-0.7-0.3-1.2c0-1.8,1.5-3.1,3.1-3.1C-175.8,262-172.1,262.4-165.6,262.4L-165.6,262.4z"/>
		</g>
		<path fill="#205081" d="M260.3,373.6c9.9,3.8,23.6,6.1,35.8,6.1c34.1,0,40.8-12.6,40.8-34.4c0-11.7-0.2-19.2-5-24.8
			c-4.4-5.1-12.2-8.5-29.9-12.9c-11.4-2.8-18-4.6-20.9-7.6c-2.7-2.6-2.9-6.8-2.9-15.6c0-13.5,3.2-17.6,23.2-17.6
			c9.6,0,20.6,1.2,30,3.2c0.1,0,0.3,0,0.4,0c0.4,0,0.8-0.1,1.2-0.4c0.5-0.3,0.8-0.9,0.8-1.4l1-10.9c0.1-1-0.5-1.9-1.5-2.1
			c-9.4-2.3-21.8-3.8-32.3-3.8c-33.2,0-40.1,13-40.1,32.5c0,11.6,0.4,20.2,5.5,26.3c5,6.1,14.2,9.1,28.3,12.3
			c12.5,2.8,19,4.7,22,7.7c2.7,2.7,3,6.6,3,15.5c0,14.6-5,18.6-23.2,18.6c-10.7,0-22-1.7-32.8-4.9c-0.2-0.1-0.4-0.1-0.6-0.1
			c-0.4,0-0.7,0.1-1,0.3c-0.5,0.3-0.8,0.8-0.9,1.3l-2.1,10.4C258.9,372.3,259.4,373.2,260.3,373.6z"/>
		<path fill="#205081" d="M418.8,319.6c0-6-1.1-14.7-6.4-21.7c-6.2-8.2-16.4-12.3-30.3-12.3c-14,0-24.2,4.2-30.3,12.3
			c-5.3,7.1-6.4,15.7-6.4,21.7v25.7c0,6,1.1,14.7,6.4,21.7c6.2,8.2,16.4,12.3,30.3,12.3c14,0,24.2-4.2,30.3-12.3
			c5.3-7.1,6.4-15.7,6.4-21.7V319.6z M362,319c0-12.5,6.8-18.9,20.1-18.9c13.3,0,20.1,6.3,20.1,18.9v26.8c0,12.5-6.8,18.8-20.1,18.8
			c-13.3,0-20.1-6.3-20.1-18.8V319z"/>
		<path fill="#205081" d="M482.6,299.2l1-10.1c0.1-0.6-0.1-1.1-0.5-1.5c-0.4-0.4-0.9-0.7-1.5-0.7h-23.2v-14.3
			c0-9.1,2.4-11.6,11.2-11.6c3.2,0,8.6,0.6,13.3,1.4c0.1,0,0.2,0,0.3,0c0.4,0,0.8-0.1,1.2-0.4c0.4-0.3,0.7-0.8,0.8-1.4l1-9.4
			c0.1-1-0.5-1.9-1.4-2.1c-5.3-1.5-11.1-2.3-17.2-2.3c-16.9,0-25.8,8.4-25.8,24.2v15.8h-13.7c-1.1,0-2,0.9-2,2V299c0,1.1,0.9,2,2,2
			h13.7v74.1c0,1.1,0.9,2,2,2h12.7c1.1,0,2-0.9,2-2V301h22.2C481.7,301,482.5,300.2,482.6,299.2z"/>
		<path fill="#205081" d="M547.7,364.7c-0.1-0.5-0.4-1-0.9-1.3c-0.3-0.2-0.7-0.3-1.1-0.3c-0.2,0-0.3,0-0.5,0.1
			c-5.1,1.3-9,1.8-12.7,1.8c-8,0-8.4-3.3-8.4-9.2v-54.4h22c1.1,0,2-0.9,2-2v-10.1c0-1.1-0.9-2-2-2h-22v-21.9c0-0.6-0.2-1.1-0.7-1.5
			c-0.4-0.3-0.8-0.5-1.3-0.5c-0.1,0-0.2,0-0.3,0l-12.7,1.8c-1,0.1-1.7,1-1.7,2v20.1h-13.7c-1.1,0-2,0.9-2,2v10.1c0,1.1,0.9,2,2,2
			h13.7v57c0,7.4,1.8,12.6,5.5,16c3.7,3.4,9.2,4.9,17.2,4.9c5.9,0,12.2-1,17.8-2.9c0.9-0.3,1.5-1.2,1.3-2.2L547.7,364.7z"/>
		<path fill="#205081" d="M676.2,286.6h-11.9c-0.9,0-1.8,0.7-1.9,1.6l-14,70l-20.5-70.2c-0.2-0.8-1-1.4-1.9-1.4h-16.6
			c-0.9,0-1.7,0.6-1.9,1.4L587,358.2l-14-70c-0.2-0.9-1-1.6-1.9-1.6h-11.9c-0.6,0-1.2,0.3-1.5,0.7c-0.4,0.5-0.5,1.1-0.4,1.7
			l18.4,86.2c0.2,0.9,1,1.6,1.9,1.6h17.6c0.9,0,1.7-0.6,1.9-1.4l20.6-72.2l20.6,72.2c0.2,0.9,1,1.4,1.9,1.4h17.6
			c0.9,0,1.7-0.7,1.9-1.6l18.4-86.2c0.1-0.6,0-1.2-0.4-1.7C677.3,286.9,676.8,286.6,676.2,286.6z"/>
		<path fill="#205081" d="M718.1,284.8c-8.7,0-19.2,1.3-28.2,3.6c-1,0.2-1.6,1.2-1.5,2.2l1.3,9.7c0.1,0.5,0.4,1,0.8,1.3
			c0.3,0.2,0.7,0.4,1.2,0.4c0.1,0,0.3,0,0.4,0c6.7-1.3,17.1-2.6,25.1-2.6c15.7,0,18.6,5,18.6,14.3v13.2h-23
			c-19.5,0-27.8,7.7-27.8,25.7c0,17.2,8.4,26.2,24.2,26.2c10.5,0,20.5-2.8,28.3-7.9l0.6,4.4c0.1,1,1,1.7,2,1.7h10.5c1.1,0,2-0.9,2-2
			v-60.5C752.5,293.6,742.2,284.8,718.1,284.8z M735.9,340.9v16.3c-6.9,4.4-15.2,7-22.3,7c-10.3,0-11.9-2.9-11.9-12.1
			c0-8.5,3-11.2,12.3-11.2H735.9z"/>
		<path fill="#205081" d="M805.5,285.8c-0.3-0.2-0.6-0.2-1-0.2c-0.3,0-0.5,0.1-0.8,0.2c-7.6,3.3-15.5,8-22,12.9l-0.7-10
			c-0.1-1-0.9-1.8-2-1.8h-10.8c-1.1,0-2,0.9-2,2V375c0,1.1,0.9,2,2,2H781c1.1,0,2-0.9,2-2v-59.7c5.2-3.6,15-10.2,24.1-14.7
			c0.8-0.4,1.2-1.2,1.1-2.1l-1.6-11.4C806.4,286.6,806.1,286.1,805.5,285.8z"/>
		<path fill="#205081" d="M850,284.9c-11.6,0-20.5,2.9-26.5,8.6c-6,5.7-9,14.2-9,25.3v26.6c0,22.7,11.4,33.3,35.8,33.3
			c10.5,0,21.9-1.8,30.5-4.8c0.9-0.3,1.5-1.2,1.3-2.2l-1.6-9.7c-0.1-0.5-0.4-1-0.9-1.3c-0.3-0.2-0.7-0.3-1.1-0.3
			c-0.2,0-0.3,0-0.5,0.1c-9.9,2.5-18.8,3.8-26.5,3.8c-15.9,0-20.5-4.3-20.5-19v-6.8H882c1.1,0,2-0.9,2-2v-17.3
			C884,296.1,872.9,284.9,850,284.9z M850,299.1c12.9,0,17.9,5.2,17.9,18.7v6.6h-36.8v-6.6C831.1,304.8,837,299.1,850,299.1z"/>
	</g>
</g>
</svg>
